<svg width="96" height="96" viewBox="0 0 480 480" fill="none" xmlns="http://www.w3.org/2000/svg">
<circle cx="240" cy="240" r="240" fill="#4B3632"/>
<path d="M186.77 70.4961C193.605 70.4961 199.758 71.668 205.227 74.0117C210.891 76.1602 216.066 78.6016 220.754 81.3359C225.637 84.0703 230.227 86.6094 234.523 88.9531C238.82 91.1016 243.215 92.1758 247.707 92.1758C251.223 91.9805 255.227 91.4922 259.719 90.7109C263.625 89.9297 268.117 88.7578 273.195 87.1953C278.469 85.4375 284.328 82.8984 290.773 79.5781C284.328 85.8281 279.055 91.1016 274.953 95.3984C271.047 99.5 268.02 102.918 265.871 105.652C263.332 108.777 261.477 111.219 260.305 112.977C259.133 115.125 257.375 118.348 255.031 122.645C252.883 126.551 249.953 131.824 246.242 138.465C242.531 144.91 237.844 153.406 232.18 163.953C232.18 150.477 230.812 140.027 228.078 132.605C225.539 125.184 222.707 119.52 219.582 115.613C215.871 111.121 211.672 108.289 206.984 107.117C202.688 106.531 198.391 107.312 194.094 109.461C189.797 111.414 185.5 114.344 181.203 118.25C177.102 122.156 173.098 126.844 169.191 132.312C165.48 137.586 162.062 143.152 158.938 149.012C156.008 154.871 153.566 160.828 151.613 166.883C149.66 172.742 148.391 178.211 147.805 183.289C147.219 187.781 147.121 193.055 147.512 199.109C147.902 204.969 148.781 211.023 150.148 217.273C151.516 223.328 153.273 229.285 155.422 235.145C157.57 241.004 160.207 246.277 163.332 250.965C166.652 255.457 170.363 259.168 174.465 262.098C178.566 264.832 183.254 266.102 188.527 265.906C194.387 265.516 200.148 263.758 205.812 260.633C210.695 258.094 215.676 254.188 220.754 248.914C225.832 243.445 230.227 235.73 233.938 225.77L277.297 233.68C264.797 248.914 252.59 260.34 240.676 267.957C228.957 275.574 218.41 280.945 209.035 284.07C198.098 287.586 187.746 289.246 177.98 289.051C165.676 287.684 154.152 283.973 143.41 277.918C132.668 271.863 123.391 264.539 115.578 255.945C107.961 247.156 102.004 237.586 97.707 227.234C93.4102 216.883 91.5547 206.727 92.1406 196.766C92.5312 190.125 93.8984 182.41 96.2422 173.621C98.5859 164.637 101.711 155.457 105.617 146.082C109.719 136.707 114.602 127.527 120.266 118.543C125.93 109.559 132.18 101.551 139.016 94.5195C145.852 87.293 153.273 81.5312 161.281 77.2344C169.484 72.7422 177.98 70.4961 186.77 70.4961Z" fill="#2DB57B"/>
<path d="M225 198.043C230.859 199.215 235.84 200.094 239.941 200.68C244.043 201.266 247.461 201.754 250.195 202.145C253.32 202.535 255.957 202.73 258.105 202.73C260.254 202.73 263.184 202.633 266.895 202.438C270.215 202.242 274.414 202.145 279.492 202.145C284.57 201.949 291.016 201.656 298.828 201.266C294.336 204.391 290.723 207.027 287.988 209.176C285.254 211.324 283.203 213.18 281.836 214.742C280.078 216.5 279.004 217.965 278.613 219.137C278.223 219.918 277.832 222.848 277.441 227.926C277.051 232.809 276.66 239.059 276.27 246.676C276.074 254.098 276.074 262.496 276.27 271.871C276.465 281.051 276.953 290.426 277.734 299.996C278.711 309.566 280.078 318.844 281.836 327.828C283.594 336.617 285.938 344.332 288.867 350.973C291.992 357.613 295.703 362.789 300 366.5C304.492 370.211 309.863 371.578 316.113 370.602C324.316 369.43 330.957 365.426 336.035 358.59C341.113 351.754 344.922 343.453 347.461 333.688C350.195 323.922 351.855 313.473 352.441 302.34C353.223 291.012 353.32 280.465 352.734 270.699C352.344 260.738 351.562 252.145 350.391 244.918C349.219 237.691 348.145 233.199 347.168 231.441C345.996 229.488 344.434 227.242 342.48 224.703C340.918 222.555 338.867 220.113 336.328 217.379C333.789 214.449 330.859 211.324 327.539 208.004C333.594 208.199 339.062 208.395 343.945 208.59C348.828 208.59 352.93 208.688 356.25 208.883C360.156 209.078 363.672 209.273 366.797 209.469C369.922 209.664 373.828 209.957 378.516 210.348C382.422 210.738 387.402 211.129 393.457 211.52C399.707 211.91 407.129 212.496 415.723 213.277C412.402 214.059 409.668 215.133 407.52 216.5C405.566 217.867 404.004 219.332 402.832 220.895C401.465 222.652 400.488 224.41 399.902 226.168C399.316 227.73 398.828 232.418 398.438 240.23C398.242 247.848 397.852 257.125 397.266 268.062C396.875 278.805 396.191 290.523 395.215 303.219C394.238 315.719 392.676 327.633 390.527 338.961C388.574 350.289 385.938 360.348 382.617 369.137C379.492 377.926 375.391 383.98 370.312 387.301C362.891 392.184 355.078 395.699 346.875 397.848C338.672 399.801 330.371 400.875 321.973 401.07C313.574 401.07 305.273 400.387 297.07 399.02C289.062 397.457 281.348 395.602 273.926 393.453C266.309 391.109 259.961 385.836 254.883 377.633C250 369.43 246.094 359.762 243.164 348.629C240.43 337.301 238.379 325.191 237.012 312.301C235.84 299.215 235.059 286.617 234.668 274.508C234.473 262.398 234.473 251.461 234.668 241.695C235.059 231.734 235.352 224.215 235.547 219.137C235.547 216.598 235.156 214.156 234.375 211.812C233.789 209.664 232.715 207.418 231.152 205.074C229.785 202.535 227.734 200.191 225 198.043Z" fill="#A04535"/>
</svg>
